<svg width="187.5" height="68" xmlns="http://www.w3.org/2000/svg" viewBox="0 0 187.5 68">
    <path fill="#EB1923" d="M182.6,11.7c-0.1-1.1-0.9-2.1-2.1-2.3c-8-1.8-41.2-8.5-85-8.5h-3.6c-43.8,0-77,6.7-85,8.5
	C5.8,9.6,5,10.5,4.9,11.7l-4,35.1c0,0.1,0,0.1,0.1,0.1c49.7-2.5,78.8,9,88.8,15.2c2.4,1.5,5.5,1.5,7.9,0
	c9.9-6.2,39.1-17.7,88.7-15.2c0.1,0,0.1-0.1,0.1-0.1L182.6,11.7z"/>
    <path fill="#FDD700" d="M1,46.1l-0.1,0.6c0,0,0,0.1,0,0.1c0,0.4,0.4,0.7,0.8,0.7c39.4-1.9,65.8,7.1,79.9,13.9c2.8,1.3,5.6,2.8,8.2,4.5
	c2.4,1.5,5.5,1.5,7.9,0c4.1-2.5,8.4-4.7,12.8-6.7C84.7,44.5,35.2,42.7,1,46.1z"/>
    <path fill="#7FBD3F" d="M186.5,46.7l-0.1-0.6c-34.2-3.4-83.7-1.5-109.6,13.1c4.4,2,8.7,4.2,12.9,6.6c2.4,1.6,5.5,1.6,7.9,0
	c2-1.2,4.7-2.7,8.2-4.5c13.9-7.1,40.4-15.7,79.8-13.9c0.4,0,0.8-0.3,0.8-0.7C186.5,46.8,186.5,46.8,186.5,46.7L186.5,46.7z"/>
    <path fill="#FFFFFF" d="M24.6,27.1v4.6h4.7c1.2,0.1,2.3-0.8,2.4-2c0-0.1,0-0.1,0-0.2c0.1-0.8-0.3-1.5-0.9-2
	c-0.5-0.3-1.1-0.5-1.7-0.4L24.6,27.1 M24.6,19v4.6h3.9c1.2,0.2,2.2-0.7,2.4-1.8c0-0.1,0-0.2,0-0.3c0.1-1.2-0.8-2.3-2-2.4
	c-0.1,0-0.2,0-0.4,0L24.6,19z M33.1,25c1.8,0.7,2.9,2.5,2.9,4.5c0,3.6-2.3,6-6.3,6h-9.2V15.3h8.5c3.6,0,6.3,2.2,6.3,6
	C35.1,22.8,34.4,24.2,33.1,25"/>
    <path fill="#FFFFFF" d="M47.2,25.3c1.6,0,2.9-1.3,2.9-2.9c0-0.1,0-0.2,0-0.2c0.1-1.6-1.1-3-2.7-3.1c-0.1,0-0.2,0-0.3,0
	h-4.3v6.2L47.2,25.3z M55.2,34.9v0.6h-2.6c-1.2,0-2.3-0.6-3-1.7l-3.1-5H43v6.7h-4.3V15.3c2.8,0,5.7,0,8.5,0c3.7-0.2,6.8,2.7,7,6.4
	c0,0.2,0,0.3,0,0.5c0.1,2.5-1.3,4.8-3.6,6L55.2,34.9z"/>
    <rect x="57.9" y="15.3" fill="#FFFFFF" width="4.3" height="20.2"/>
    <rect x="140.2" y="15.3" fill="#FFFFFF" width="4.3" height="20.2"/>
    <path fill="#FFFFFF"
          d="M64.9,19v-3.7h16.5l-1.2,2.5c-0.3,0.8-1.1,1.2-1.9,1.2h-3.7v16.5h-4.1V19L64.9,19"/>
    <path fill="#FFFFFF" d="M84.8,28.5h5.5l-2.8-6.7 M83.4,32.1l-1.5,3.4h-4.4v-0.6l9.1-19.8h2l9.1,19.8v0.6h-4.4l-1.6-3.4
	H83.4z"/>
    <path fill="#FFFFFF" d="M103.8,24v11.5h-4.2V15.2h1.3l11.2,11.5V15.3h4.3v20.3h-1.3"/>
    <path fill="#FFFFFF" d="M124.1,24v11.5h-4.2V15.2h1.3l11.2,11.5V15.3h4.3v20.3h-1.3"/>
    <path fill="#FFFFFF" d="M154.2,28.5h5.5l-2.8-6.7 M152.8,32.1l-1.5,3.4h-4.4v-0.6l9.1-19.8h2l9.1,19.8v0.6h-4.4l-1.6-3.4
	L152.8,32.1z"/>
</svg>
